<?xml version="1.0" encoding="UTF-8"?>
<!DOCTYPE svg PUBLIC "-//W3C//DTD SVG 1.1//EN" "http://www.w3.org/Graphics/SVG/1.1/DTD/svg11.dtd">
<svg xmlns="http://www.w3.org/2000/svg" version="1.1" width="64px" height="64px" style="shape-rendering:geometricPrecision; text-rendering:geometricPrecision; image-rendering:optimizeQuality; fill-rule:evenodd; clip-rule:evenodd" xmlns:xlink="http://www.w3.org/1999/xlink">
<g><path style="opacity:1" fill="#272900" d="M 8.5,8.5 C 14.1667,8.5 19.8333,8.5 25.5,8.5C 25.5,10.5 25.5,12.5 25.5,14.5C 21.8333,14.5 18.1667,14.5 14.5,14.5C 14.5,18.1667 14.5,21.8333 14.5,25.5C 12.5,25.5 10.5,25.5 8.5,25.5C 8.5,19.8333 8.5,14.1667 8.5,8.5 Z"/></g>
<g><path style="opacity:1" fill="#272900" d="M 37.5,8.5 C 43.1667,8.5 48.8333,8.5 54.5,8.5C 54.5,14.1667 54.5,19.8333 54.5,25.5C 52.5,25.5 50.5,25.5 48.5,25.5C 48.5,21.8333 48.5,18.1667 48.5,14.5C 44.8333,14.5 41.1667,14.5 37.5,14.5C 37.5,12.5 37.5,10.5 37.5,8.5 Z"/></g>
<g><path style="opacity:0.967" fill="#272900" d="M 8.5,35.5 C 10.5,35.5 12.5,35.5 14.5,35.5C 14.5,39.8333 14.5,44.1667 14.5,48.5C 18.1667,48.5 21.8333,48.5 25.5,48.5C 25.5,50.5 25.5,52.5 25.5,54.5C 19.8333,54.5 14.1667,54.5 8.5,54.5C 8.5,48.1667 8.5,41.8333 8.5,35.5 Z"/></g>
<g><path style="opacity:0.967" fill="#272900" d="M 48.5,35.5 C 50.5,35.5 52.5,35.5 54.5,35.5C 54.5,41.8333 54.5,48.1667 54.5,54.5C 48.8333,54.5 43.1667,54.5 37.5,54.5C 37.5,52.5 37.5,50.5 37.5,48.5C 41.1667,48.5 44.8333,48.5 48.5,48.5C 48.5,44.1667 48.5,39.8333 48.5,35.5 Z"/></g>
</svg>
