<?xml version="1.0" encoding="UTF-8"?>
<!DOCTYPE svg PUBLIC "-//W3C//DTD SVG 1.1//EN" "http://www.w3.org/Graphics/SVG/1.1/DTD/svg11.dtd">
<svg xmlns="http://www.w3.org/2000/svg" version="1.1" width="64px" height="64px" style="shape-rendering:geometricPrecision; text-rendering:geometricPrecision; image-rendering:optimizeQuality; fill-rule:evenodd; clip-rule:evenodd" xmlns:xlink="http://www.w3.org/1999/xlink">
<g><path style="opacity:1" fill="#272900" d="M 25.5,8.5 C 29.5,8.5 33.5,8.5 37.5,8.5C 37.5,14.1667 37.5,19.8333 37.5,25.5C 43.1667,25.5 48.8333,25.5 54.5,25.5C 54.5,29.5 54.5,33.5 54.5,37.5C 48.8333,37.5 43.1667,37.5 37.5,37.5C 37.5,43.1667 37.5,48.8333 37.5,54.5C 33.5,54.5 29.5,54.5 25.5,54.5C 25.5,48.8333 25.5,43.1667 25.5,37.5C 19.8333,37.5 14.1667,37.5 8.5,37.5C 8.5,33.5 8.5,29.5 8.5,25.5C 14.1667,25.5 19.8333,25.5 25.5,25.5C 25.5,19.8333 25.5,14.1667 25.5,8.5 Z"/></g>
</svg>
