<?xml version="1.0" encoding="UTF-8"?>
<!DOCTYPE svg PUBLIC "-//W3C//DTD SVG 1.1//EN" "http://www.w3.org/Graphics/SVG/1.1/DTD/svg11.dtd">
<svg xmlns="http://www.w3.org/2000/svg" version="1.1" width="64px" height="64px" style="shape-rendering:geometricPrecision; text-rendering:geometricPrecision; image-rendering:optimizeQuality; fill-rule:evenodd; clip-rule:evenodd" xmlns:xlink="http://www.w3.org/1999/xlink">
<g><path style="opacity:0.951" fill="#272900" d="M 30.5,9.5 C 31.8307,16.4682 32.4974,23.8016 32.5,31.5C 32.1667,38.8333 31.8333,46.1667 31.5,53.5C 26.5,49.6667 21.5,45.8333 16.5,42C 13.854,41.5026 11.1873,41.3359 8.5,41.5C 8.5,34.8333 8.5,28.1667 8.5,21.5C 11.1873,21.6641 13.854,21.4974 16.5,21C 21.421,17.3869 26.0877,13.5536 30.5,9.5 Z"/></g>
<g><path style="opacity:0.786" fill="#272900" d="M 41.5,20.5 C 43.4366,22.0908 45.4366,23.7575 47.5,25.5C 49.4829,24.018 51.3163,22.3513 53,20.5C 56.0481,21.5189 57.3814,23.5189 57,26.5C 55.5,28 54,29.5 52.5,31C 58.8024,34.5719 58.9691,38.4053 53,42.5C 51.3606,40.1939 49.3606,38.1939 47,36.5C 45.3163,38.3513 43.4829,40.018 41.5,41.5C 38.7495,40.2842 37.5828,38.2842 38,35.5C 39.5,34 41,32.5 42.5,31C 40.3967,29.8151 38.73,28.1484 37.5,26C 38.6502,24.019 39.9835,22.1857 41.5,20.5 Z"/></g>
</svg>
