<?xml version="1.0" encoding="UTF-8"?>
<!DOCTYPE svg PUBLIC "-//W3C//DTD SVG 1.1//EN" "http://www.w3.org/Graphics/SVG/1.1/DTD/svg11.dtd">
<svg xmlns="http://www.w3.org/2000/svg" version="1.1" width="160px" height="64px" style="shape-rendering:geometricPrecision; text-rendering:geometricPrecision; image-rendering:optimizeQuality; fill-rule:evenodd; clip-rule:evenodd" xmlns:xlink="http://www.w3.org/1999/xlink">
<g><path style="opacity:0.88" fill="#595a59" d="M 35.5,10.5 C 36.5,10.5 37.5,10.5 38.5,10.5C 38.5,23.1667 38.5,35.8333 38.5,48.5C 33.2141,46.4039 28.5474,43.2372 24.5,39C 21.854,38.5026 19.1873,38.3359 16.5,38.5C 16.5,32.5 16.5,26.5 16.5,20.5C 19.1873,20.6641 21.854,20.4974 24.5,20C 28.359,16.9684 32.0257,13.8017 35.5,10.5 Z"/></g>
<g><path style="opacity:0.749" fill="#595a59" d="M 45.5,19.5 C 47.4628,20.9599 49.2962,22.6266 51,24.5C 52.3894,22.7727 54.0561,21.4394 56,20.5C 58.7235,21.2084 59.7235,22.8751 59,25.5C 57.8333,26.6667 56.6667,27.8333 55.5,29C 60.7711,32.2696 60.7711,35.4362 55.5,38.5C 53.8333,37.1667 52.1667,35.8333 50.5,34.5C 48.8333,35.8333 47.1667,37.1667 45.5,38.5C 44.4763,37.1468 43.143,36.4802 41.5,36.5C 41.933,33.7147 43.2663,31.3813 45.5,29.5C 44.1667,27.8333 42.8333,26.1667 41.5,24.5C 42.8569,22.8144 44.1902,21.1477 45.5,19.5 Z"/></g>
<g><path style="opacity:1" fill="#595a59" d="M 6.5,52.5 C 54.8333,52.5 103.167,52.5 151.5,52.5C 151.5,53.5 151.5,54.5 151.5,55.5C 103.167,55.5 54.8333,55.5 6.5,55.5C 6.5,54.5 6.5,53.5 6.5,52.5 Z"/></g>
</svg>
