<?xml version="1.0" encoding="UTF-8"?>
<!DOCTYPE svg PUBLIC "-//W3C//DTD SVG 1.1//EN" "http://www.w3.org/Graphics/SVG/1.1/DTD/svg11.dtd">
<svg xmlns="http://www.w3.org/2000/svg" version="1.1" width="160px" height="64px" style="shape-rendering:geometricPrecision; text-rendering:geometricPrecision; image-rendering:optimizeQuality; fill-rule:evenodd; clip-rule:evenodd" xmlns:xlink="http://www.w3.org/1999/xlink">
<g><path style="opacity:1" fill="#595a59" d="M 147.5,9.5 C 148.833,9.5 150.167,9.5 151.5,9.5C 151.5,23.1667 151.5,36.8333 151.5,50.5C 103.167,50.5 54.8333,50.5 6.5,50.5C 6.36007,48.8762 7.02674,47.7096 8.5,47C 55.0308,34.76 101.364,22.26 147.5,9.5 Z"/></g>
<g><path style="opacity:1" fill="#595a59" d="M 6.5,52.5 C 54.8333,52.5 103.167,52.5 151.5,52.5C 151.5,53.5 151.5,54.5 151.5,55.5C 103.167,55.5 54.8333,55.5 6.5,55.5C 6.5,54.5 6.5,53.5 6.5,52.5 Z"/></g>
</svg>
